# Wavefront OBJ file automatically generated by Tiled2Unity

# Vertices (Count = 267)
v -240 -24 0
v -264 -24 0
v -264 0 0
v -240 0 0
v -240 -48 0
v -264 -48 0
v -288 -48 0
v -288 -24 0
v -696 -48 0
v -720 -48 0
v -720 -24 0
v -696 -24 0
v -744 -48 0
v -744 -24 0
v -240 -72 0
v -264 -72 0
v -720 -72 0
v -744 -72 0
v -720 -96 0
v -744 -96 0
v -240 -120 0
v -264 -120 0
v -264 -96 0
v -240 -96 0
v -720 -120 0
v -744 -120 0
v -240 -144 0
v -264 -144 0
v -720 -144 0
v -744 -144 0
v -240 -168 0
v -264 -168 0
v -288 -168 0
v -288 -144 0
v -720 -168 0
v -744 -168 0
v -240 -192 0
v -264 -192 0
v -288 -192 0
v -720 -192 0
v -744 -192 0
v -240 -216 0
v -264 -216 0
v -288 -216 0
v -720 -216 0
v -744 -216 0
v -240 -240 0
v -264 -240 0
v -288 -240 0
v -720 -240 0
v -744 -240 0
v -240 -264 0
v -264 -264 0
v -288 -264 0
v -720 -264 0
v -744 -264 0
v -240 -288 0
v -264 -288 0
v -288 -288 0
v -312 -288 0
v -312 -264 0
v -336 -288 0
v -336 -264 0
v -360 -288 0
v -360 -264 0
v -384 -288 0
v -384 -264 0
v -408 -288 0
v -408 -264 0
v -432 -288 0
v -432 -264 0
v -456 -288 0
v -456 -264 0
v -480 -288 0
v -480 -264 0
v -504 -288 0
v -504 -264 0
v -528 -288 0
v -528 -264 0
v -552 -288 0
v -552 -264 0
v -576 -288 0
v -576 -264 0
v -600 -288 0
v -600 -264 0
v -624 -288 0
v -624 -264 0
v -648 -288 0
v -648 -264 0
v -672 -288 0
v -672 -264 0
v -696 -288 0
v -696 -264 0
v -720 -288 0
v -744 -288 0
v -240 -312 0
v -264 -312 0
v -288 -312 0
v -312 -312 0
v -336 -312 0
v -360 -312 0
v -384 -312 0
v -408 -312 0
v -432 -312 0
v -456 -312 0
v -480 -312 0
v -504 -312 0
v -528 -312 0
v -552 -312 0
v -576 -312 0
v -600 -312 0
v -624 -312 0
v -648 -312 0
v -672 -312 0
v -696 -312 0
v -720 -312 0
v -744 -312 0
v -240 -336 0
v -264 -336 0
v -288 -336 0
v -312 -336 0
v -336 -336 0
v -360 -336 0
v -384 -336 0
v -408 -336 0
v -432 -336 0
v -456 -336 0
v -480 -336 0
v -504 -336 0
v -528 -336 0
v -552 -336 0
v -576 -336 0
v -600 -336 0
v -624 -336 0
v -648 -336 0
v -672 -336 0
v -696 -336 0
v -720 -336 0
v -744 -336 0
v -288 0 0
v -312 -24 0
v -312 0 0
v -336 -24 0
v -336 0 0
v -360 -24 0
v -360 0 0
v -384 -24 0
v -384 0 0
v -408 -24 0
v -408 0 0
v -432 -24 0
v -432 0 0
v -456 -24 0
v -456 0 0
v -480 -24 0
v -480 0 0
v -504 -24 0
v -504 0 0
v -528 -24 0
v -528 0 0
v -552 -24 0
v -552 0 0
v -576 -24 0
v -576 0 0
v -600 -24 0
v -600 0 0
v -624 -24 0
v -624 0 0
v -648 -24 0
v -648 0 0
v -672 -24 0
v -672 0 0
v -696 0 0
v -720 0 0
v -744 0 0
v -312 -48 0
v -336 -48 0
v -360 -48 0
v -384 -48 0
v -408 -48 0
v -432 -48 0
v -456 -48 0
v -480 -48 0
v -504 -48 0
v -528 -48 0
v -552 -48 0
v -576 -48 0
v -600 -48 0
v -624 -48 0
v -648 -48 0
v -672 -48 0
v -288 -72 0
v -696 -72 0
v -288 -96 0
v -696 -96 0
v -696 -120 0
v -336 -144 0
v -360 -144 0
v -360 -120 0
v -336 -120 0
v -384 -144 0
v -384 -120 0
v -696 -144 0
v -696 -168 0
v -360 -192 0
v -384 -192 0
v -384 -168 0
v -360 -168 0
v -408 -192 0
v -408 -168 0
v -432 -192 0
v -432 -168 0
v -456 -192 0
v -480 -192 0
v -480 -168 0
v -456 -168 0
v -504 -192 0
v -504 -168 0
v -528 -192 0
v -528 -168 0
v -552 -192 0
v -552 -168 0
v -576 -192 0
v -576 -168 0
v -600 -192 0
v -600 -168 0
v -624 -192 0
v -624 -168 0
v -648 -192 0
v -648 -168 0
v -672 -192 0
v -672 -168 0
v -696 -192 0
v -312 -216 0
v -336 -216 0
v -336 -192 0
v -312 -192 0
v -360 -216 0
v -384 -216 0
v -408 -216 0
v -432 -216 0
v -456 -216 0
v -480 -216 0
v -504 -216 0
v -528 -216 0
v -552 -216 0
v -576 -216 0
v -600 -216 0
v -624 -216 0
v -648 -216 0
v -696 -216 0
v -312 -240 0
v -336 -240 0
v -360 -240 0
v -384 -240 0
v -408 -240 0
v -432 -240 0
v -456 -240 0
v -480 -240 0
v -504 -240 0
v -528 -240 0
v -552 -240 0
v -576 -240 0
v -600 -240 0
v -624 -240 0
v -648 -240 0
v -696 -240 0

# Texture cooridinates (Count = 64)
vt 2.034505E-05 0.8333537
vt 0.1666463 0.8333537
vt 0.1666463 0.9999797
vt 2.034505E-05 0.9999797
vt 2.034505E-05 0.666687
vt 0.1666463 0.666687
vt 0.1666463 0.833313
vt 2.034505E-05 0.833313
vt 0.166687 0.5000204
vt 0.333313 0.5000204
vt 0.333313 0.6666464
vt 0.166687 0.6666464
vt 0.3333537 0.5000204
vt 0.4999796 0.5000204
vt 0.4999796 0.6666464
vt 0.3333537 0.6666464
vt 0.3333537 0.166687
vt 0.4999796 0.166687
vt 0.4999796 0.333313
vt 0.3333537 0.333313
vt 0.3333537 0.8333537
vt 0.4999796 0.8333537
vt 0.4999796 0.9999797
vt 0.3333537 0.9999797
vt 0.3333537 0.666687
vt 0.4999796 0.666687
vt 0.4999796 0.833313
vt 0.3333537 0.833313
vt 2.034505E-05 0.5000204
vt 0.1666463 0.5000204
vt 0.1666463 0.6666464
vt 2.034505E-05 0.6666464
vt 0.166687 0.666687
vt 0.333313 0.666687
vt 0.333313 0.833313
vt 0.166687 0.833313
vt 0.166687 0.8333537
vt 0.333313 0.8333537
vt 0.333313 0.9999797
vt 0.166687 0.9999797
vt 0.166687 0.3333537
vt 0.333313 0.3333537
vt 0.333313 0.4999797
vt 0.166687 0.4999797
vt 2.034505E-05 0.3333537
vt 0.1666463 0.3333537
vt 0.1666463 0.4999797
vt 2.034505E-05 0.4999797
vt 0.3333537 0.3333537
vt 0.4999796 0.3333537
vt 0.4999796 0.4999797
vt 0.3333537 0.4999797
vt 0.3333537 2.032518E-05
vt 0.4999796 2.032518E-05
vt 0.4999796 0.1666463
vt 0.3333537 0.1666463
vt 2.034505E-05 2.032518E-05
vt 0.1666463 2.032518E-05
vt 0.1666463 0.1666463
vt 2.034505E-05 0.1666463
vt 0.5000203 2.032518E-05
vt 0.6666463 2.032518E-05
vt 0.6666463 0.1666463
vt 0.5000203 0.1666463

# Normal
vn 0 0 -1

# Groups (Count = 1)

g mesh_0001
f 1/1/1 2/2/1 3/3/1 4/4/1
f 5/5/1 6/6/1 2/7/1 1/8/1
f 6/9/1 7/10/1 8/11/1 2/12/1
f 9/9/1 10/10/1 11/11/1 12/12/1
f 10/13/1 13/14/1 14/15/1 11/16/1
f 15/5/1 16/6/1 6/7/1 5/8/1
f 17/13/1 18/14/1 13/15/1 10/16/1
f 19/13/1 20/14/1 18/15/1 17/16/1
f 21/17/1 22/18/1 23/19/1 24/20/1
f 25/13/1 26/14/1 20/15/1 19/16/1
f 27/17/1 28/18/1 22/19/1 21/20/1
f 29/13/1 30/14/1 26/15/1 25/16/1
f 31/1/1 32/2/1 28/3/1 27/4/1
f 32/21/1 33/22/1 34/23/1 28/24/1
f 35/13/1 36/14/1 30/15/1 29/16/1
f 37/5/1 38/6/1 32/7/1 31/8/1
f 38/25/1 39/26/1 33/27/1 32/28/1
f 40/13/1 41/14/1 36/15/1 35/16/1
f 42/29/1 43/30/1 38/31/1 37/32/1
f 43/13/1 44/14/1 39/15/1 38/16/1
f 45/13/1 46/14/1 41/15/1 40/16/1
f 47/5/1 48/6/1 43/7/1 42/8/1
f 48/25/1 49/26/1 44/27/1 43/28/1
f 50/13/1 51/14/1 46/15/1 45/16/1
f 52/5/1 53/6/1 48/7/1 47/8/1
f 53/25/1 54/26/1 49/27/1 48/28/1
f 55/13/1 56/14/1 51/15/1 50/16/1
f 57/29/1 58/30/1 53/31/1 52/32/1
f 58/33/1 59/34/1 54/35/1 53/36/1
f 59/37/1 60/38/1 61/39/1 54/40/1
f 60/37/1 62/38/1 63/39/1 61/40/1
f 62/37/1 64/38/1 65/39/1 63/40/1
f 64/37/1 66/38/1 67/39/1 65/40/1
f 66/37/1 68/38/1 69/39/1 67/40/1
f 68/37/1 70/38/1 71/39/1 69/40/1
f 70/37/1 72/38/1 73/39/1 71/40/1
f 72/37/1 74/38/1 75/39/1 73/40/1
f 74/37/1 76/38/1 77/39/1 75/40/1
f 76/37/1 78/38/1 79/39/1 77/40/1
f 78/37/1 80/38/1 81/39/1 79/40/1
f 80/37/1 82/38/1 83/39/1 81/40/1
f 82/37/1 84/38/1 85/39/1 83/40/1
f 84/37/1 86/38/1 87/39/1 85/40/1
f 86/37/1 88/38/1 89/39/1 87/40/1
f 88/37/1 90/38/1 91/39/1 89/40/1
f 90/37/1 92/38/1 93/39/1 91/40/1
f 92/9/1 94/10/1 55/11/1 93/12/1
f 94/13/1 95/14/1 56/15/1 55/16/1
f 96/5/1 97/6/1 58/7/1 57/8/1
f 97/33/1 98/34/1 59/35/1 58/36/1
f 98/33/1 99/34/1 60/35/1 59/36/1
f 99/33/1 100/34/1 62/35/1 60/36/1
f 100/33/1 101/34/1 64/35/1 62/36/1
f 101/33/1 102/34/1 66/35/1 64/36/1
f 102/33/1 103/34/1 68/35/1 66/36/1
f 103/33/1 104/34/1 70/35/1 68/36/1
f 104/33/1 105/34/1 72/35/1 70/36/1
f 105/33/1 106/34/1 74/35/1 72/36/1
f 106/33/1 107/34/1 76/35/1 74/36/1
f 107/33/1 108/34/1 78/35/1 76/36/1
f 108/33/1 109/34/1 80/35/1 78/36/1
f 109/33/1 110/34/1 82/35/1 80/36/1
f 110/33/1 111/34/1 84/35/1 82/36/1
f 111/33/1 112/34/1 86/35/1 84/36/1
f 112/33/1 113/34/1 88/35/1 86/36/1
f 113/33/1 114/34/1 90/35/1 88/36/1
f 114/33/1 115/34/1 92/35/1 90/36/1
f 115/9/1 116/10/1 94/11/1 92/12/1
f 116/13/1 117/14/1 95/15/1 94/16/1
f 118/29/1 119/30/1 97/31/1 96/32/1
f 119/9/1 120/10/1 98/11/1 97/12/1
f 120/9/1 121/10/1 99/11/1 98/12/1
f 121/9/1 122/10/1 100/11/1 99/12/1
f 122/9/1 123/10/1 101/11/1 100/12/1
f 123/9/1 124/10/1 102/11/1 101/12/1
f 124/9/1 125/10/1 103/11/1 102/12/1
f 125/9/1 126/10/1 104/11/1 103/12/1
f 126/9/1 127/10/1 105/11/1 104/12/1
f 127/9/1 128/10/1 106/11/1 105/12/1
f 128/9/1 129/10/1 107/11/1 106/12/1
f 129/9/1 130/10/1 108/11/1 107/12/1
f 130/9/1 131/10/1 109/11/1 108/12/1
f 131/9/1 132/10/1 110/11/1 109/12/1
f 132/9/1 133/10/1 111/11/1 110/12/1
f 133/9/1 134/10/1 112/11/1 111/12/1
f 134/9/1 135/10/1 113/11/1 112/12/1
f 135/9/1 136/10/1 114/11/1 113/12/1
f 136/9/1 137/10/1 115/11/1 114/12/1
f 137/9/1 138/10/1 116/11/1 115/12/1
f 138/13/1 139/14/1 117/15/1 116/16/1

g mesh_0002
f 2/37/1 8/38/1 140/39/1 3/40/1
f 8/37/1 141/38/1 142/39/1 140/40/1
f 141/37/1 143/38/1 144/39/1 142/40/1
f 143/37/1 145/38/1 146/39/1 144/40/1
f 145/37/1 147/38/1 148/39/1 146/40/1
f 147/37/1 149/38/1 150/39/1 148/40/1
f 149/37/1 151/38/1 152/39/1 150/40/1
f 151/37/1 153/38/1 154/39/1 152/40/1
f 153/37/1 155/38/1 156/39/1 154/40/1
f 155/37/1 157/38/1 158/39/1 156/40/1
f 157/37/1 159/38/1 160/39/1 158/40/1
f 159/37/1 161/38/1 162/39/1 160/40/1
f 161/37/1 163/38/1 164/39/1 162/40/1
f 163/37/1 165/38/1 166/39/1 164/40/1
f 165/37/1 167/38/1 168/39/1 166/40/1
f 167/37/1 169/38/1 170/39/1 168/40/1
f 169/37/1 171/38/1 172/39/1 170/40/1
f 171/37/1 12/38/1 173/39/1 172/40/1
f 12/37/1 11/38/1 174/39/1 173/40/1
f 11/21/1 14/22/1 175/23/1 174/24/1
f 7/41/1 176/42/1 141/43/1 8/44/1
f 176/9/1 177/10/1 143/11/1 141/12/1
f 177/9/1 178/10/1 145/11/1 143/12/1
f 178/41/1 179/42/1 147/43/1 145/44/1
f 179/41/1 180/42/1 149/43/1 147/44/1
f 180/9/1 181/10/1 151/11/1 149/12/1
f 181/9/1 182/10/1 153/11/1 151/12/1
f 182/9/1 183/10/1 155/11/1 153/12/1
f 183/9/1 184/10/1 157/11/1 155/12/1
f 184/9/1 185/10/1 159/11/1 157/12/1
f 185/9/1 186/10/1 161/11/1 159/12/1
f 186/9/1 187/10/1 163/11/1 161/12/1
f 187/9/1 188/10/1 165/11/1 163/12/1
f 188/41/1 189/42/1 167/43/1 165/44/1
f 189/41/1 190/42/1 169/43/1 167/44/1
f 190/41/1 191/42/1 171/43/1 169/44/1
f 191/9/1 9/10/1 12/11/1 171/12/1
f 16/13/1 192/14/1 7/15/1 6/16/1
f 193/5/1 17/6/1 10/7/1 9/8/1
f 24/45/1 23/46/1 16/47/1 15/48/1
f 23/49/1 194/50/1 192/51/1 16/52/1
f 195/29/1 19/30/1 17/31/1 193/32/1
f 196/29/1 25/30/1 19/31/1 195/32/1
f 197/1/1 198/2/1 199/3/1 200/4/1
f 198/21/1 201/22/1 202/23/1 199/24/1
f 203/5/1 29/6/1 25/7/1 196/8/1
f 204/29/1 35/30/1 29/31/1 203/32/1
f 205/1/1 206/2/1 207/3/1 208/4/1
f 206/37/1 209/38/1 210/39/1 207/40/1
f 209/21/1 211/22/1 212/23/1 210/24/1
f 213/53/1 214/54/1 215/55/1 216/56/1
f 214/53/1 217/54/1 218/55/1 215/56/1
f 217/53/1 219/54/1 220/55/1 218/56/1
f 219/53/1 221/54/1 222/55/1 220/56/1
f 221/53/1 223/54/1 224/55/1 222/56/1
f 223/53/1 225/54/1 226/55/1 224/56/1
f 225/53/1 227/54/1 228/55/1 226/56/1
f 227/53/1 229/54/1 230/55/1 228/56/1
f 229/53/1 231/54/1 232/55/1 230/56/1
f 233/5/1 40/6/1 35/7/1 204/8/1
f 234/53/1 235/54/1 236/55/1 237/56/1
f 235/53/1 238/54/1 205/55/1 236/56/1
f 238/53/1 239/54/1 206/55/1 205/56/1
f 239/53/1 240/54/1 209/55/1 206/56/1
f 240/53/1 241/54/1 211/55/1 209/56/1
f 241/57/1 242/58/1 213/59/1 211/60/1
f 242/57/1 243/58/1 214/59/1 213/60/1
f 243/1/1 244/2/1 217/3/1 214/4/1
f 244/37/1 245/38/1 219/39/1 217/40/1
f 245/37/1 246/38/1 221/39/1 219/40/1
f 246/37/1 247/38/1 223/39/1 221/40/1
f 247/37/1 248/38/1 225/39/1 223/40/1
f 248/37/1 249/38/1 227/39/1 225/40/1
f 249/21/1 250/22/1 229/23/1 227/24/1
f 251/29/1 45/30/1 40/31/1 233/32/1
f 252/1/1 253/2/1 235/3/1 234/4/1
f 253/21/1 254/22/1 238/23/1 235/24/1
f 254/61/1 255/62/1 239/63/1 238/64/1
f 255/61/1 256/62/1 240/63/1 239/64/1
f 256/61/1 257/62/1 241/63/1 240/64/1
f 257/57/1 258/58/1 242/59/1 241/60/1
f 258/57/1 259/58/1 243/59/1 242/60/1
f 259/45/1 260/46/1 244/47/1 243/48/1
f 260/41/1 261/42/1 245/43/1 244/44/1
f 261/9/1 262/10/1 246/11/1 245/12/1
f 262/9/1 263/10/1 247/11/1 246/12/1
f 263/9/1 264/10/1 248/11/1 247/12/1
f 264/9/1 265/10/1 249/11/1 248/12/1
f 265/49/1 266/50/1 250/51/1 249/52/1
f 267/5/1 50/6/1 45/7/1 251/8/1
f 93/29/1 55/30/1 50/31/1 267/32/1

